<?xml version="1.0" standalone="no"?>
<!DOCTYPE svg PUBLIC "-//W3C//DTD SVG 20010904//EN"
 "http://www.w3.org/TR/2001/REC-SVG-20010904/DTD/svg10.dtd">
<svg version="1.0" xmlns="http://www.w3.org/2000/svg"
 width="841.000000pt" height="243.000000pt" viewBox="0 0 841.000000 243.000000"
 preserveAspectRatio="xMidYMid meet">

<g transform="translate(0.000000,243.000000) scale(0.100000,-0.100000)"
fill="#000000" stroke="none">
<path d="M4000 1983 c-285 -29 -522 -209 -603 -456 -16 -50 -20 -88 -19 -197
0 -119 3 -144 26 -210 52 -150 169 -285 317 -368 146 -80 391 -91 579 -24 287
100 436 319 431 631 -2 160 -44 282 -135 393 -138 170 -359 256 -596 231z
m178 -112 c79 -24 124 -60 182 -145 95 -142 116 -218 113 -411 -1 -123 -4
-149 -27 -215 -75 -215 -179 -308 -355 -318 -133 -7 -225 25 -294 102 -72 80
-132 205 -156 324 -17 83 -13 227 8 309 23 87 89 214 139 266 91 95 252 131
390 88z"/>
<path d="M5570 1983 c-295 -31 -536 -220 -601 -470 -30 -117 -27 -275 6 -381
45 -142 163 -290 289 -363 85 -49 156 -70 261 -80 234 -21 449 46 593 185 103
98 154 198 178 346 20 123 18 202 -10 301 -32 119 -68 180 -161 275 -65 66
-96 89 -165 122 -122 58 -251 80 -390 65z m212 -121 c64 -28 119 -81 168 -161
55 -91 77 -153 94 -258 42 -264 -72 -555 -249 -634 -92 -41 -246 -37 -340 9
-149 72 -267 340 -251 568 9 116 23 170 74 271 66 130 116 177 230 214 75 25
207 21 274 -9z"/>
<path d="M470 1941 c0 -37 1 -39 41 -44 49 -6 74 -27 91 -76 20 -55 19 -943
-1 -989 -16 -37 -56 -62 -101 -62 -28 0 -30 -3 -30 -35 l0 -35 265 0 265 0 0
35 c0 32 -2 35 -29 35 -47 0 -79 17 -98 52 -16 30 -18 72 -21 466 -5 570 0
598 102 609 46 6 46 6 46 44 l0 39 -265 0 -265 0 0 -39z"/>
<path d="M2107 1973 c-4 -3 -7 -21 -7 -40 0 -31 2 -33 33 -33 49 0 94 -32 106
-77 7 -24 11 -207 11 -501 0 -554 3 -540 -109 -558 -39 -6 -41 -8 -41 -42 l0
-35 179 6 179 7 61 -32 c94 -49 150 -45 321 22 175 68 187 71 216 60 33 -13
30 -43 -7 -74 -17 -14 -29 -31 -27 -37 5 -16 86 66 94 96 19 75 -35 156 -122
181 -65 19 -92 11 -258 -66 -138 -64 -170 -74 -196 -60 -48 26 -50 47 -50 542
0 289 4 477 10 500 12 43 31 56 95 64 45 7 45 7 45 45 l0 39 -263 0 c-145 0
-267 -3 -270 -7z"/>
<path d="M6560 1941 c0 -37 1 -39 39 -45 64 -10 93 -43 101 -112 4 -33 -5
-251 -21 -496 -23 -365 -30 -442 -45 -467 -19 -32 -52 -51 -89 -51 -22 0 -25
-5 -25 -35 l0 -35 210 0 210 0 0 35 c0 30 -3 35 -24 35 -47 0 -84 21 -101 57
-15 31 -16 66 -10 350 4 173 11 339 14 370 l6 56 217 -449 217 -449 31 0 31 0
210 440 c116 242 214 444 220 449 11 12 11 -577 1 -696 -9 -90 -19 -105 -89
-123 -43 -11 -48 -15 -51 -44 l-3 -31 270 0 271 0 0 34 c0 31 -2 34 -40 39
-57 7 -87 31 -99 75 -22 81 -41 948 -22 995 13 32 63 57 116 57 35 0 36 1 33
36 l-3 35 -175 0 -175 1 -19 -39 c-10 -21 -106 -227 -213 -458 -107 -231 -197
-422 -199 -424 -4 -5 -255 509 -361 742 l-86 187 -173 0 -174 0 0 -39z"/>
</g>
</svg>
