<svg version="1.0" xmlns="http://www.w3.org/2000/svg" width="64.000000ptpx" height="64.000000ptpx" viewBox="0 0 64.000000 64.000000" preserveAspectRatio="xMidYMid meet" transform="rotate(0) scale(1, 1)">

<g transform="translate(0.000000,64.000000) scale(0.100000,-0.100000)" fill="#95106b" stroke="none">
<path d="M115 561 c-3 -11 -15 -23 -26 -26 -21 -7 -25 -21 -8 -27 8 -3 7 -14&#10;-5 -35 -9 -18 -16 -46 -16 -64 0 -21 -10 -43 -30 -66 -17 -18 -30 -44 -30 -58&#10;0 -32 42 -63 98 -71 37 -5 58 -17 99 -54 28 -26 67 -55 87 -64 34 -16 38 -16&#10;73 0 21 10 73 53 116 96 43 43 84 78 91 78 8 0 27 15 44 34 25 29 30 42 30 88&#10;0 68 -9 84 -55 98 -21 7 -47 21 -58 31 -47 42 -110 49 -168 20 -36 -19 -38&#10;-19 -74 1 -27 14 -51 18 -81 15 -31 -3 -45 -1 -49 9 -8 20 -31 17 -38 -5z m30&#10;-51 c-5 -8 -11 -8 -17 -2 -6 6 -7 16 -3 22 5 8 11 8 17 2 6 -6 7 -16 3 -22z&#10;m143 0 c32 -20 32 -20 65 0 77 47 178 9 199 -77 5 -19 2 -23 -17 -23 -37 0&#10;-58 -27 -51 -65 6 -32 5 -33 -46 -53 -29 -12 -72 -26 -95 -33 -44 -12 -58 -29&#10;-25 -29 21 0 148 42 181 59 51 28 -6 -57 -81 -120 -81 -67 -97 -70 -163 -24&#10;-66 45 -85 65 -61 65 9 0 16 5 16 10 0 6 -11 10 -24 10 -50 0 -113 126 -100&#10;197 6 32 34 68 34 44 0 -20 19 -12 52 24 38 40 68 44 116 15z m322 -80 c0 -11&#10;-7 -20 -15 -20 -8 0 -15 6 -15 14 0 8 -3 22 -7 31 -5 15 -3 16 15 6 12 -7 22&#10;-21 22 -31z m-2 -69 c4 -29 -26 -63 -52 -59 -24 4 -52 48 -43 71 4 11 17 15&#10;49 13 36 -2 44 -6 46 -25z m-517 -71 c25 -46 25 -50 8 -50 -55 0 -82 37 -59&#10;81 16 28 22 24 51 -31z"/>
<path d="M250 230 c0 -5 5 -10 10 -10 6 0 10 5 10 10 0 6 -4 10 -10 10 -5 0&#10;-10 -4 -10 -10z"/>
<path d="M507 149 l-28 -29 30 -31 31 -31 31 31 31 31 -30 30 c-17 17 -32 30&#10;-34 30 -2 -1 -16 -14 -31 -31z m40 -35 c-9 -9 -28 6 -21 18 4 6 10 6 17 -1 6&#10;-6 8 -13 4 -17z"/>
</g>
</svg>