<svg version="1.0" xmlns="http://www.w3.org/2000/svg" width="64.000000ptpx" height="64.000000ptpx" viewBox="0 0 64.000000 64.000000" preserveAspectRatio="xMidYMid meet" transform="rotate(0) scale(1, 1)">

<g transform="translate(0.000000,64.000000) scale(0.100000,-0.100000)" fill="#95106b" stroke="none">
<path d="M156 535 c-37 -20 -53 -41 -67 -89 -9 -34 -8 -44 14 -87 l25 -47 -38&#10;-26 c-37 -24 -90 -111 -90 -147 0 -44 21 -49 214 -49 196 0 206 2 206 52 l0&#10;28 89 0 c72 0 93 4 112 19 21 17 22 21 11 59 -7 23 -28 54 -50 74 -35 31 -37&#10;37 -25 53 7 11 13 39 13 63 0 81 -75 126 -149 88 -48 -25 -66 -99 -35 -144 15&#10;-22 14 -24 -22 -56 -30 -26 -42 -31 -55 -23 -15 9 -14 13 7 45 74 109 -45 247&#10;-160 187z m119 -50 c35 -34 35 -96 0 -130 -51 -52 -140 -19 -151 56 -13 82 92&#10;134 151 74z m238 3 c27 -22 31 -61 7 -91 -39 -49 -110 -26 -110 36 0 56 59 87&#10;103 55z m18 -173 c30 -16 69 -68 69 -92 0 -10 -26 -13 -98 -13 -98 0 -98 0&#10;-121 30 -25 34 -22 44 23 71 38 23 87 24 127 4z m-244 -44 c41 -19 84 -70 98&#10;-118 l6 -23 -175 0 c-192 0 -192 0 -162 58 47 89 143 123 233 83z"/>
</g>
</svg>