<svg version="1.0" xmlns="http://www.w3.org/2000/svg" width="64.000000ptpx" height="64.000000ptpx" viewBox="0 0 64.000000 64.000000" preserveAspectRatio="xMidYMid meet" transform="rotate(0) scale(1, 1)">

<g transform="translate(0.000000,64.000000) scale(0.100000,-0.100000)" fill="#ffffff" stroke="none">
<path d="M149 571 c-23 -23 -29 -39 -29 -70 0 -41 0 -41 -39 -41 l-39 0 -6&#10;-107 c-3 -60 -9 -154 -12 -210 l-6 -103 302 0 302 0 -6 78 c-4 42 -9 105 -12&#10;140 l-6 62 -73 0 c-82 0 -85 2 -85 93 l0 47 -40 0 -40 0 0 41 c0 31 -6 47 -29&#10;70 -26 26 -36 29 -91 29 -55 0 -65 -3 -91 -29z m47 -13 c-9 -12 -16 -39 -16&#10;-60 0 -31 -4 -38 -20 -38 -29 0 -28 65 2 97 29 31 55 32 34 1z m121 0 c31 -29&#10;33 -98 3 -98 -16 0 -20 7 -20 38 0 21 -7 48 -16 60 -20 29 1 30 33 0z m-53&#10;-10 c9 -12 16 -37 16 -55 0 -32 -1 -33 -40 -33 -39 0 -40 1 -40 33 0 32 23 77&#10;40 77 5 0 16 -10 24 -22z m-144 -142 c0 -21 -6 -36 -15 -40 -11 -4 -15 -20&#10;-15 -56 l0 -50 40 0 40 0 0 50 c0 36 -4 52 -15 56 -9 4 -15 19 -15 40 l0 34&#10;70 0 c63 0 70 -2 70 -20 0 -11 5 -20 10 -20 6 0 10 9 10 20 0 13 7 20 20 20&#10;16 0 20 -7 20 -37 0 -21 3 -48 6 -60 6 -21 3 -23 -29 -23 l-35 0 -6 -72 c-4&#10;-40 -9 -99 -12 -130 l-6 -58 -110 0 -110 0 6 95 c3 52 9 138 12 190 l6 95 29&#10;0 c26 0 29 -3 29 -34z m263 -23 c3 -32 4 -59 2 -62 -11 -10 -19 12 -23 64 -6&#10;74 13 72 21 -2z m40 0 c4 -56 2 -72 -8 -62 -10 11 -17 119 -8 119 6 0 13 -26&#10;16 -57z m-273 -68 c0 -28 -4 -35 -20 -35 -16 0 -20 7 -20 35 0 28 4 35 20 35&#10;16 0 20 -7 20 -35z m355 -82 c3 -38 8 -92 11 -120 l5 -53 -121 0 -121 0 6 67&#10;c3 38 8 92 11 121 l5 52 99 0 98 0 7 -67z m39 30 c13 -94 15 -149 7 -162 -11&#10;-17 -17 12 -26 127 -5 75 9 102 19 35z m37 20 c0 -10 4 -55 7 -100 8 -91 -3&#10;-104 -13 -15 -3 31 -8 74 -11 95 -4 23 -2 37 5 37 6 0 11 -8 12 -17z m4 -213&#10;c3 -5 -3 -10 -15 -10 -12 0 -18 5 -15 10 3 6 10 10 15 10 5 0 12 -4 15 -10z"/>
<path d="M340 206 c0 -63 16 -86 60 -86 44 0 60 23 60 86 0 72 -18 69 -22 -3&#10;l-3 -58 -35 0 -35 0 -3 58 c-4 72 -22 75 -22 3z"/>
</g>
</svg>